{"title":"Marvels.Daredevil.S02E01.720p.WEBRip.AAC-FooKaS.mp4","uid":13911370,"size":1116586867,"categoryP":"video","categoryS":"hd___tv_shows","magnet":"?xt=urn:btih:bf95747ce311e1b392ed752d3483ea97771b8d56&amp;dn=Marvels.Daredevil.S02E01.720p.WEBRip.AAC-FooKaS.mp4&amp;tr=udp%3A%2F%2Ftracker.leechers-paradise.org%3A6969&amp;tr=udp%3A%2F%2Fzer0day.ch%3A1337&amp;tr=udp%3A%2F%2Fopen.demonii.com%3A1337&amp;tr=udp%3A%2F%2Ftracker.coppersurfer.tk%3A6969&amp;tr=udp%3A%2F%2Fexodus.desync.com%3A6969","seeders":19,"leechers":4,"uploader":"makintos13","files":1,"time":1458303443,"description":"screens:\r\n \nhttp://imgmak.com/Kq1\r\n\r\n::::::::::::::::\r\n\r\n \nhttp://www.imdb.com/title/tt3322312/\r\n\r\nGeneral\r\nComplete name                            :Marvels.Daredevil.S02E01.720p.WEBRip.AAC-FooKaS.mp4\r\nFormat                                   : MPEG-4\r\nFormat profile                           : Base Media\r\nCodec ID                                 : isom\r\nFile size                                : 1.04 GiB\r\nDuration                                 : 47mn 9s\r\nOverall bit rate mode                    : Variable\r\nOverall bit rate                         : 3 157 Kbps\r\nEncoded date                             : UTC 2016-03-17 09:18:28\r\nTagged date                              : UTC 2016-03-17 09:18:28\r\n\r\nVideo\r\nID                                       : 1\r\nFormat                                   : AVC\r\nFormat/Info                              : Advanced Video Codec\r\nFormat profile                           :   \r\nFormat settings, CABAC                   : No\r\nFormat settings, ReFrames                : 1 frame\r\nCodec ID                                 : avc1\r\nCodec ID/Info                            : Advanced Video Coding\r\nDuration                                 : 47mn 9s\r\nBit rate                                 : 3 026 Kbps\r\nWidth                                    : 1 280 pixels\r\nHeight                                   : 720 pixels\r\nDisplay aspect ratio                     : 16:9\r\nFrame rate mode                          : Constant\r\nFrame rate                               : 25.000 fps\r\nColor space                              : YUV\r\nChroma subsampling                       : 4:2:0\r\nBit depth                                : 8 bits\r\nScan type                                : Progressive\r\nBits/(Pixel*Frame)                       : 0.131\r\nStream size                              : 1 021 MiB (96%)\r\nTagged date                              : UTC 2016-03-17 09:18:31\r\n\r\nAudio\r\nID                                       : 2\r\nFormat                                   : AAC\r\nFormat/Info                              : Advanced Audio Codec\r\nFormat profile                           : LC\r\nCodec ID                                 : 40\r\nDuration                                 : 47mn 9s\r\nBit rate mode                            : Variable\r\nBit rate                                 : 128 Kbps\r\nMaximum bit rate                         : 216 Kbps\r\nChannel(s)                               : 2 channels\r\nChannel positions                        : Front: L R\r\nSampling rate                            : 44.1 KHz\r\nCompression mode                         : Lossy\r\nStream size                              : 43.2 MiB (4%)\r\nTagged date                              : UTC 2016-03-17 09:18:31","torrent":{"xt":"urn:btih:bf95747ce311e1b392ed752d3483ea97771b8d56","amp;dn":"Marvels.Daredevil.S02E01.720p.WEBRip.AAC-FooKaS.mp4","amp;tr":["udp%3A%2F%2Ftracker.leechers-paradise.org%3A6969","udp%3A%2F%2Fzer0day.ch%3A1337","udp%3A%2F%2Fopen.demonii.com%3A1337","udp%3A%2F%2Ftracker.coppersurfer.tk%3A6969","udp%3A%2F%2Fexodus.desync.com%3A6969"],"infoHash":"bf95747ce311e1b392ed752d3483ea97771b8d56","infoHashBuffer":{"type":"Buffer","data":[191,149,116,124,227,17,225,179,146,237,117,45,52,131,234,151,119,27,141,86]},"announce":[],"urlList":[]}}